<svg id="visual" viewBox="0 0 800 2000" width="800" height="2000" xmlns="http://www.w3.org/2000/svg" xmlns:xlink="http://www.w3.org/1999/xlink" version="1.1"><rect x="0" y="0" width="800" height="2000" fill="#fff"></rect><path d="M101 0L89.3 33.3C77.7 66.7 54.3 133.3 61.3 200C68.3 266.7 105.7 333.3 106.5 400C107.3 466.7 71.7 533.3 50.8 600C30 666.7 24 733.3 38.7 800C53.3 866.7 88.7 933.3 107.3 1000C126 1066.7 128 1133.3 114.5 1200C101 1266.7 72 1333.3 72.2 1400C72.3 1466.7 101.7 1533.3 110.8 1600C120 1666.7 109 1733.3 110.3 1800C111.7 1866.7 125.3 1933.3 132.2 1966.7L139 2000L0 2000L0 1966.7C0 1933.3 0 1866.7 0 1800C0 1733.3 0 1666.7 0 1600C0 1533.3 0 1466.7 0 1400C0 1333.3 0 1266.7 0 1200C0 1133.3 0 1066.7 0 1000C0 933.3 0 866.7 0 800C0 733.3 0 666.7 0 600C0 533.3 0 466.7 0 400C0 333.3 0 266.7 0 200C0 133.3 0 66.7 0 33.3L0 0Z" fill="#4ACA59" stroke-linecap="round" stroke-linejoin="miter"></path></svg>